<svg width="35" height="60" viewBox="0 0 35 60" fill="none" xmlns="http://www.w3.org/2000/svg">
<path d="M12.5292 2.03332C14.3273 1.10528 16.5074 1.35246 18.0521 2.65949L33.2297 15.5021C34.3525 16.4521 35 17.8482 35 19.319V39.0135L5.3849 9.34113C3.96459 7.91807 1.78662 7.57787 0 8.5V8.5L12.5292 2.03332Z" fill="#4B4B4B"/>
<path d="M0 14.8284C0 13.0466 2.15428 12.1543 3.41421 13.4142L11.4142 21.4142C11.7893 21.7893 12 22.298 12 22.8284V36.1716C12 36.702 11.7893 37.2107 11.4142 37.5858L3.41422 45.5858C2.15429 46.8457 0 45.9534 0 44.1716V14.8284Z" fill="#191919"/>
<path d="M0 50.5V50.5C1.15477 51.3661 2.76599 51.2723 3.8125 50.2781L22 33L35 46L14.9737 58.1899C13.1865 59.2778 10.9109 59.1378 9.27049 57.8391L0 50.5Z" fill="#323232"/>
</svg>
